<?xml version="1.0" encoding="utf-8"?>
<!-- Generator: Adobe Illustrator 24.1.1, SVG Export Plug-In . SVG Version: 6.00 Build 0)  -->
<svg version="1.1" id="Layer_1" xmlns="http://www.w3.org/2000/svg" xmlns:xlink="http://www.w3.org/1999/xlink" x="0px" y="0px"
	 viewBox="0 0 5000 5000" style="enable-background:new 0 0 5000 5000;" xml:space="preserve">
<g>
	<circle style="fill:#4E71A8;" cx="2492" cy="2500.39" r="2206.87"/>
</g>
<g>
	<path style="fill:#ffffff;" d="M1828.8,2043.95h288.36v-147.88c0-165.12,17.56-288.36,52.68-369.69
		c35.12-81.33,99.82-147.56,194.09-198.71c94.27-51.12,213.5-76.71,357.68-76.71c147.88,0,292.66,22.18,434.38,66.54l-70.24,362.3
		c-82.57-19.7-162.06-29.58-238.45-29.58c-75.18,0-129.1,17.56-161.74,52.68c-32.67,35.12-48.98,102.59-48.98,202.4v138.64h388.17
		v408.5h-388.17V4007h-519.42V2452.45H1828.8V2043.95z"/>
</g>
</svg>
